<svg version="1.1" id="Layer_1" xmlns="http://www.w3.org/2000/svg" xmlns:xlink="http://www.w3.org/1999/xlink" x="0px" y="0px"
	 width="100%" viewBox="0 0 336 224" enable-background="new 0 0 336 224" xml:space="preserve">
<path fill="#000000" opacity="1.000000" stroke="none" 
	d="
M34.922028,121.923737 
	C39.470055,117.664658 44.255333,114.339737 49.474827,111.690269 
	C54.662365,109.057007 60.021679,106.797592 66.111969,105.228699 
	C63.851048,96.612190 63.322197,87.873337 62.298473,79.190109 
	C61.522957,72.612221 61.741638,66.331093 63.140713,59.934792 
	C64.296898,54.648960 67.508560,51.057640 71.883522,48.309677 
	C85.185127,39.954788 99.858749,34.889191 115.126358,32.108700 
	C147.963760,26.128460 180.654434,26.647461 212.834595,36.594368 
	C219.607376,38.687843 226.115479,41.109505 229.629395,48.057152 
	C230.508392,49.795063 232.649734,49.985073 234.286163,50.761578 
	C244.159317,55.446518 254.917358,58.832626 260.842590,69.149315 
	C272.460724,60.559223 283.904388,59.236744 299.567139,70.469513 
	C308.633698,76.971695 312.095581,86.165283 309.831024,96.796555 
	C305.531494,116.981255 294.198334,131.397629 273.790527,137.564209 
	C269.349945,138.906006 264.911774,140.255676 260.232056,141.674652 
	C265.068756,146.224335 269.792969,150.559372 274.391449,155.023972 
	C279.135162,159.629562 282.572632,165.069260 284.350616,171.498627 
	C286.861328,180.577728 284.540100,187.357239 276.631500,192.751099 
	C268.620056,198.215088 259.370514,200.607132 250.006699,202.198273 
	C230.838898,205.455353 211.520370,204.270447 192.217484,203.653961 
	C171.900528,203.005142 151.733231,201.033966 131.770981,197.282242 
	C107.440292,192.709473 82.873482,188.845596 60.528130,177.210327 
	C49.982288,171.719086 40.011444,165.481155 32.610497,155.818863 
	C22.322947,142.387970 22.752558,134.331711 34.922028,121.923737 
M241.585861,85.508392 
	C231.596970,89.701836 221.059494,89.012367 210.604248,88.925575 
	C206.114426,88.888306 201.622665,88.358017 197.138855,88.439552 
	C167.487717,88.978767 137.966324,86.605087 108.478813,84.119904 
	C97.178047,83.167488 85.507599,83.467552 74.833511,78.059998 
	C72.209114,76.730461 70.023399,78.649811 70.798836,82.077629 
	C73.833023,95.490273 78.231644,108.245300 86.994949,119.241783 
	C95.261902,129.615433 105.281837,136.923569 118.436356,139.636475 
	C121.521088,140.272675 124.552170,141.207977 127.566696,142.139191 
	C145.341660,147.629974 163.526413,150.694458 182.114899,149.728531 
	C197.135788,148.948029 210.515915,143.171738 220.216248,131.504562 
	C228.063080,122.066727 234.679169,111.587608 241.583832,101.396019 
	C243.513901,98.547127 244.657074,95.129524 245.933853,91.883369 
	C247.289001,88.437965 246.361008,86.015137 241.585861,85.508392 
M59.803650,118.417732 
	C52.972954,121.453156 45.375988,122.551880 38.978329,126.690239 
	C35.986748,128.625351 33.934784,130.897797 34.835102,134.875061 
	C37.039867,144.614899 42.590908,152.013824 50.627796,157.651688 
	C63.157776,166.441452 76.838760,172.892883 91.687012,176.543365 
	C121.099991,183.774628 150.808838,189.304291 181.144012,190.845917 
	C202.924622,191.952789 224.718765,192.926132 246.465469,190.576233 
	C254.242996,189.735825 261.859161,187.750626 268.772095,183.832382 
	C271.441956,182.319092 273.771912,180.349808 273.524780,176.810944 
	C272.989014,169.139374 257.821777,150.752701 250.403564,148.796585 
	C249.127960,148.460236 247.771591,148.443375 246.469223,148.192307 
	C244.510696,147.814758 242.213943,147.658356 241.098206,145.896072 
	C238.432266,141.685425 233.712021,141.172729 230.071533,138.928406 
	C226.659485,141.766388 223.568695,144.540558 220.272705,147.044662 
	C202.623688,160.453323 182.654068,163.508835 161.151642,160.673615 
	C142.913589,158.268799 125.150078,154.538651 108.372849,146.629776 
	C95.856552,140.729523 84.305099,133.758423 76.013603,122.315666 
	C71.033417,115.442703 68.640800,114.832512 59.803650,118.417732 
M194.875183,41.721333 
	C174.203018,37.497173 153.283585,36.672157 132.281311,37.410038 
	C124.488472,37.683823 116.364494,37.549416 109.460709,41.700779 
	C103.940872,45.019947 98.012245,46.961628 92.091202,49.129936 
	C86.608116,51.137867 81.160011,53.286072 76.787178,57.336845 
	C72.135147,61.646248 72.346504,64.050819 77.646973,67.461273 
	C85.033142,72.213715 93.211609,75.079353 101.772095,76.625542 
	C119.840416,79.889038 138.124420,80.492477 156.447525,80.840607 
	C178.924774,81.267670 201.394135,82.437607 223.861023,80.672035 
	C230.994064,80.111488 238.127060,79.455688 244.971512,77.184113 
	C248.230484,76.102509 251.056259,73.220276 255.251007,75.640038 
	C255.169189,71.411194 254.778458,68.129066 252.049454,65.458038 
	C246.256012,59.787663 239.791138,54.856281 232.046112,52.613029 
	C219.917282,49.100060 208.145584,44.343586 194.875183,41.721333 
M281.926270,121.424767 
	C288.268585,116.606842 293.184052,110.631180 296.582764,103.414391 
	C302.483337,90.884987 296.847626,70.229134 276.584961,73.091972 
	C276.093140,73.161476 275.587860,73.133522 275.089081,73.155762 
	C267.887848,73.476761 266.821075,74.548058 266.695099,81.965111 
	C260.963165,82.111526 259.228149,86.197151 258.115051,91.018684 
	C255.306244,103.185265 248.064667,112.980110 240.846970,122.763962 
	C240.280472,123.531891 239.394867,124.549454 238.613770,124.589149 
	C235.419601,124.751480 233.898529,126.271873 234.459808,129.365433 
	C235.091370,132.846344 237.871460,133.659225 240.882935,133.564102 
	C243.700333,133.475128 246.501709,132.842529 249.318314,132.770813 
	C261.150513,132.469559 271.866730,129.005936 281.926270,121.424767 
z"/>
<path fill="#000000" opacity="1.000000" stroke="none" 
	d="
M235.174957,58.670734 
	C240.851196,61.657616 245.890076,64.841957 249.184570,70.256493 
	C240.274887,64.857887 230.393723,61.352329 221.848434,55.226524 
	C226.590714,54.833450 230.770172,56.446747 235.174957,58.670734 
z"/>
</svg>